<?xml version="1.0" encoding="UTF-8" standalone="no"?>
<!-- Generator: Adobe Illustrator 22.1.0, SVG Export Plug-In . SVG Version: 6.00 Build 0)  -->

<svg
   version="1.1"
   id="Layer_1"
   x="0px"
   y="0px"
   viewBox="0 0 117.98396 117.98396"
   xml:space="preserve"
   sodipodi:docname="pineapple-1.svg"
   width="117.98396"
   height="117.98396"
   inkscape:version="1.1 (c68e22c387, 2021-05-23)"
   inkscape:export-filename="D:\Descargas\psychphinder\pineapple-1.png"
   inkscape:export-xdpi="416.599"
   inkscape:export-ydpi="416.599"
   xmlns:inkscape="http://www.inkscape.org/namespaces/inkscape"
   xmlns:sodipodi="http://sodipodi.sourceforge.net/DTD/sodipodi-0.dtd"
   xmlns="http://www.w3.org/2000/svg"
   xmlns:svg="http://www.w3.org/2000/svg"><defs
   id="defs596">
		
		
		
		
		
		
		
		
	
			
			
			
			
			
			
			
			
			
			
			
			
			
			
			
			
			
			
			
			
			
			
			
			
			
			
			
			
			
			
			
			
			
			
			
			
			
			
			
			
			
			
			
			
			
			
			
			
			
			
			
		</defs><sodipodi:namedview
   id="namedview594"
   pagecolor="#505050"
   bordercolor="#eeeeee"
   borderopacity="1"
   inkscape:pageshadow="0"
   inkscape:pageopacity="0"
   inkscape:pagecheckerboard="0"
   showgrid="false"
   inkscape:zoom="1.746"
   inkscape:cx="279.20962"
   inkscape:cy="245.4181"
   inkscape:window-width="2560"
   inkscape:window-height="1377"
   inkscape:window-x="-8"
   inkscape:window-y="-8"
   inkscape:window-maximized="1"
   inkscape:current-layer="g26"
   inkscape:snap-bbox="true"
   inkscape:snap-bbox-midpoints="true" />
<style
   type="text/css"
   id="style463">
	.st0{fill:#FCC61A;}
	.st1{fill:#51CA00;}
</style>
<g
   id="g591"
   transform="translate(157.91317,140.57102)">
	<g
   id="g571">
		
		
	<g
   id="g26"
   transform="translate(-0.60964097,12.349941)"><g
     id="g8984"
     transform="translate(-339.33353,-158.09768)"><g
       id="g4"
       transform="translate(184.42153,13.745704)"><path
         style="fill:#56b300"
         d="m 50.934,42.083 c 0,0 -17.998,-21.81 0.813,-42.083 -10e-4,0 17.638,21.21 -0.813,42.083 z"
         id="path2" /></g><g
       id="g8"
       transform="translate(184.42153,13.745704)"><path
         style="fill:#56b300"
         d="m 68.706,44.243 c 0,0 10e-4,-15.213 15.904,-21.437 0,0 -11.063,-6.914 -22.818,3.458 C 50.036,36.636 56.26,55.306 56.26,55.306 Z"
         id="path6" /></g><g
       id="g12"
       transform="translate(184.42153,13.745704)"><path
         style="fill:#008218"
         d="m 60.977,38.516 c 0,0 0.001,-17.429 18.222,-24.559 0,0 -12.675,-7.923 -26.145,3.961 -13.468,11.884 -6.338,33.274 -6.338,33.274 z"
         id="path10" /></g><g
       id="g16"
       transform="translate(184.42153,13.745704)"><path
         style="fill:#56b300"
         d="m 32.14,44.243 c 0,0 -10e-4,-15.213 -15.904,-21.437 0,0 11.062,-6.914 22.818,3.458 11.756,10.371 5.532,29.041 5.532,29.041 z"
         id="path14" /></g><g
       id="g20"
       transform="translate(184.42153,13.745704)"><path
         style="fill:#008218"
         d="m 39.868,38.516 c 0,0 -0.001,-17.429 -18.222,-24.559 0,0 12.675,-7.923 26.145,3.961 13.468,11.884 6.338,33.274 6.338,33.274 z"
         id="path18" /></g><g
       id="g24"
       transform="translate(184.42153,13.745704)"><path
         style="fill:#ffd200;fill-opacity:1"
         d="m 75.95,75.58 c 0,13.954 -11.312,25.266 -25.266,25.266 H 50.215 C 36.261,100.846 24.949,89.534 24.949,75.58 V 60.111 c 0,-13.954 11.311,-25.266 25.266,-25.266 h 0.469 c 13.954,0 25.266,11.312 25.266,25.266 z"
         id="path22" /></g><path
       d="m 279.00338,98.229637 -13.41065,-8.956639 c 1.48828,-3.847334 1.93582,-8.146225 1.07267,-12.48081 -2.42522,-12.179089 -14.30581,-20.115797 -26.4849,-17.69057 -12.17909,2.425224 -20.11085,14.307173 -17.68563,26.486262 2.42523,12.179085 14.30357,20.11624 26.48491,17.69056 4.12111,-0.82064 7.75561,-2.72413 10.66592,-5.354815 l 13.5292,9.035825 c 5.77572,3.85162 11.60777,-4.87191 5.82848,-8.729813 z m -49.6617,-14.005165 c -1.67305,-8.401772 3.80315,-16.601204 12.20492,-18.27425 8.40177,-1.673048 16.60076,3.800905 18.27425,12.204925 1.6735,8.404017 -3.80315,16.601202 -12.20493,18.274249 -8.40177,1.673046 -16.6012,-3.803152 -18.27424,-12.204924 z"
       id="path2-3"
       style="fill:#000000;fill-opacity:1;stroke:none;stroke-width:2.29118;stroke-opacity:1"
       sodipodi:nodetypes="ccsssscccsssss" /></g></g></g>
	
</g>
</svg>
